<?xml version="1.0" encoding="UTF-8"?>
<svg version="1.1" xmlns="http://www.w3.org/2000/svg" width="128" height="128">
<path d="M0 0 C4.35976848 1.36135063 8.38535411 3.04431485 12.4921875 5.0390625 C13.08299103 5.32478119 13.67379456 5.61049988 14.28250122 5.90487671 C16.14834319 6.808176 18.0116898 7.71649161 19.875 8.625 C21.1482752 9.24252227 22.42171124 9.85971299 23.6953125 10.4765625 C26.79874308 11.98054817 29.89995825 13.48903927 33 15 C29.44422456 19.37493872 25.68707467 23.32665521 21.6015625 27.21484375 C20.61828024 28.15798492 19.63521065 29.10134786 18.65234375 30.04492188 C17.13421857 31.50120846 15.61140329 32.95012552 14.06982422 34.3815918 C7.13780698 40.24244163 7.13780698 40.24244163 4.1484375 48.31640625 C5.66578185 54.87996461 7.85204205 58.33619594 13.1875 62.4375 C14.15945312 63.20191406 15.13140625 63.96632812 16.1328125 64.75390625 C17.07898438 65.49511719 18.02515625 66.23632812 19 67 C20.53204612 68.27834717 22.05437847 69.56851377 23.5625 70.875 C24.18253906 71.40867187 24.80257812 71.94234375 25.44140625 72.4921875 C28.09648593 75.06076083 28.97040858 76.68041266 29.3125 80.375 C28.98541809 84.1691502 28.33784503 86.03273515 26 89 C25.34 89 24.68 89 24 89 C23.814375 90.8871875 23.814375 90.8871875 23.625 92.8125 C23.30131941 96.10325263 22.93395001 97.09907498 21 100 C18.39712638 100.2864952 16.03294626 100.37848245 13.42919922 100.34057617 C12.64862152 100.34101425 11.86804382 100.34145233 11.06381226 100.34190369 C8.47718511 100.33980941 5.89120176 100.31644883 3.3046875 100.29296875 C1.51392979 100.28737506 -0.2768325 100.28310389 -2.06759644 100.28010559 C-6.78595608 100.26863895 -11.50403964 100.23915625 -16.22229004 100.20599365 C-21.88068435 100.16994307 -27.53917086 100.15614027 -33.19764709 100.13863373 C-41.79862353 100.10951985 -50.39899397 100.05204553 -59 100 C-59 83.5 -59 67 -59 50 C-54.27547788 50.78742035 -52.78581255 51.10334539 -49 53 C-41.55787145 54.47073269 -32.7591675 54.96101751 -26 51 C-25.29738285 49.0123447 -24.63582919 47.01001634 -24 45 C-23.15521176 43.19718911 -22.26937367 41.41315597 -21.34765625 39.6484375 C-20.56104614 38.13721313 -20.56104614 38.13721313 -19.75854492 36.59545898 C-19.1988501 35.53270752 -18.63915527 34.46995605 -18.0625 33.375 C-17.48927002 32.27937744 -16.91604004 31.18375488 -16.32543945 30.05493164 C-11.02307261 19.95974569 -5.55827446 9.95625279 0 0 Z " fill="#DC98E4" transform="translate(59,28)"/>
<path d="M0 0 C4.35976848 1.36135063 8.38535411 3.04431485 12.4921875 5.0390625 C13.37839279 5.46764053 13.37839279 5.46764053 14.28250122 5.90487671 C16.14834319 6.808176 18.0116898 7.71649161 19.875 8.625 C21.1482752 9.24252227 22.42171124 9.85971299 23.6953125 10.4765625 C26.79874308 11.98054817 29.89995825 13.48903927 33 15 C29.44422456 19.37493872 25.68707467 23.32665521 21.6015625 27.21484375 C20.61828024 28.15798492 19.63521065 29.10134786 18.65234375 30.04492188 C17.13421857 31.50120846 15.61140329 32.95012552 14.06982422 34.3815918 C7.13780698 40.24244163 7.13780698 40.24244163 4.1484375 48.31640625 C5.66578185 54.87996461 7.85204205 58.33619594 13.1875 62.4375 C14.15945312 63.20191406 15.13140625 63.96632812 16.1328125 64.75390625 C17.07898438 65.49511719 18.02515625 66.23632812 19 67 C20.53204612 68.27834717 22.05437847 69.56851377 23.5625 70.875 C24.18253906 71.40867187 24.80257812 71.94234375 25.44140625 72.4921875 C28.09648593 75.06076083 28.97040858 76.68041266 29.3125 80.375 C28.98661564 84.15525861 28.20255735 85.97148365 26 89 C17.84241731 86.62033917 10.54873658 82.87989726 3.0625 78.9375 C1.77465233 78.26524299 0.48664655 77.59328878 -0.80151367 76.92163086 C-10.62837377 71.78321052 -20.36133454 66.48384581 -30 61 C-29.44977693 57.62468199 -28.88953061 54.30397085 -28 51 C-27.34 51 -26.68 51 -26 51 C-25.72470459 50.12037598 -25.44940918 49.24075195 -25.16577148 48.33447266 C-24.09147744 45.2616542 -22.85227816 42.52918384 -21.34765625 39.6484375 C-20.56104614 38.13721313 -20.56104614 38.13721313 -19.75854492 36.59545898 C-18.91900269 35.00133179 -18.91900269 35.00133179 -18.0625 33.375 C-17.48927002 32.27937744 -16.91604004 31.18375488 -16.32543945 30.05493164 C-11.02307261 19.95974569 -5.55827446 9.95625279 0 0 Z " fill="#632FDE" transform="translate(59,28)"/>
<path d="M0 0 C0.66 0.33 1.32 0.66 2 1 C2.4921875 3.29296875 2.4921875 3.29296875 2.875 6.1875 C3.68211047 11.19939566 4.93903168 14.02074118 8 18 C8 18.66 8 19.32 8 20 C3.1725201 18.58707905 -0.7162359 16.57025846 -5 14 C-4.46274105 10.62294375 -3.88935377 7.303314 -3 4 C-2.34 4 -1.68 4 -1 4 C-0.67 2.68 -0.34 1.36 0 0 Z " fill="#029995" transform="translate(34,75)"/>
<path d="M0 0 C4.14498989 2.54351652 7.45961195 4.79858899 10 9 C10.62867257 14.02938055 9.97531812 16.90893759 7 21 C4.525 20.01 4.525 20.01 2 19 C2.4125 18.05125 2.825 17.1025 3.25 16.125 C4.61792475 11.54338902 2.87812123 8.31593763 0.9453125 4.13671875 C0 2 0 2 0 0 Z " fill="#330034" transform="translate(78,96)"/>
<path d="M0 0 C4.35976848 1.36135063 8.38535411 3.04431485 12.4921875 5.0390625 C13.08299103 5.32478119 13.67379456 5.61049988 14.28250122 5.90487671 C16.14834319 6.808176 18.0116898 7.71649161 19.875 8.625 C21.1482752 9.24252227 22.42171124 9.85971299 23.6953125 10.4765625 C26.79874308 11.98054817 29.89995825 13.48903927 33 15 C29.23242188 16.07958984 29.23242188 16.07958984 27.140625 15.36328125 C26.51671875 15.01652344 25.8928125 14.66976562 25.25 14.3125 C24.54746094 13.93480469 23.84492187 13.55710937 23.12109375 13.16796875 C22.42113281 12.78253906 21.72117187 12.39710937 21 12 C14.10517265 8.44279608 7.05434446 5.22607216 0 2 C0 1.34 0 0.68 0 0 Z " fill="#3F0CB6" transform="translate(59,28)"/>
</svg>
